<?xml version="1.0" encoding="UTF-8"?>
<svg id="Calque_2" data-name="Calque 2" xmlns="http://www.w3.org/2000/svg" viewBox="0 0 429.49 429.49">
  <defs>
    <style>
      .cls-1 {
        fill: #fff;
      }

      .cls-2 {
        fill: #0c6ebf;
      }
    </style>
  </defs>
  <g id="Layer_1" data-name="Layer 1">
    <g>
      <circle class="cls-2" cx="214.75" cy="214.75" r="214.75"/>
      <g>
        <path class="cls-1" d="M314.97,241.31v73.28h-41.5v-64.96c0-15.51-.3-35.43-21.59-35.43s-24.92,16.88-24.92,34.3v66.09h-41.51v-133.61h39.84v17.93c0,.19.15.34.34.34.13,0,.24-.07.3-.18,5.61-10.46,19.12-21.4,39.23-21.4,42.05,0,49.8,27.65,49.8,63.64Z"/>
        <g>
          <rect class="cls-1" x="117.49" y="180.67" width="42.22" height="134.24"/>
          <path class="cls-1" d="M163,138.67c0,13.45-10.94,24.39-24.39,24.39s-24.39-10.94-24.39-24.39,10.94-24.39,24.39-24.39,24.39,10.94,24.39,24.39Z"/>
        </g>
      </g>
    </g>
  </g>
</svg>